<svg width="181" height="181" viewBox="0 0 181 181" fill="none" xmlns="http://www.w3.org/2000/svg">
<rect x="0.5" y="0.5" width="180" height="180" rx="38.6916" fill="black"/>
<g clip-path="url(#clip0_7_6)">
<path fill-rule="evenodd" clip-rule="evenodd" d="M99.6859 142.481H147.192L128.977 110.042H81.6666C107.333 109.938 128.103 91.3289 128.103 68.3925C128.103 45.4562 107.216 26.743 81.449 26.743C72.5124 26.743 65.2716 45.3912 65.2716 68.3925C65.2716 74.1469 65.7264 79.6315 66.545 84.6187H50.7087L34.1448 142.481H81.462V110.042L99.6859 142.481ZM72.9835 68.3925C72.9835 49.6046 76.7712 34.3733 81.4457 34.3733C86.1203 34.3733 89.908 49.6046 89.908 68.3925C89.908 87.1805 86.1203 102.412 81.4457 102.412C76.7712 102.412 72.9835 87.1805 72.9835 68.3925Z" fill="white"/>
</g>
<defs>
<clipPath id="clip0_7_6">
<rect width="113.047" height="115.738" fill="white" transform="translate(34.1448 26.743)"/>
</clipPath>
</defs>
</svg>
