<svg width="1482" height="344" viewBox="0 0 1482 344" fill="none" xmlns="http://www.w3.org/2000/svg">
  <g clip-path="url(#clip0_1449_3475)">
    <path fill-rule="evenodd" clip-rule="evenodd"
      d="M1482 171.928L1432.45 0.106305H1264.16L1250.28 47.9031C1224.89 18.7674 1185.19 0.00976562 1140.56 0.00976562C1113.99 0.00976562 1092.43 55.3367 1092.43 123.59V130.56L1020.55 0.106305H981.296L909.889 247.731H781.949C858.303 247.422 920.09 192.211 920.09 124.15C920.09 56.0897 857.964 0.569696 781.311 0.569696C754.734 0.569696 733.18 55.8966 733.18 124.15C733.18 141.228 734.525 157.495 736.964 172.295H716.62C716.62 172.208 716.62 172.14 716.62 172.063H688.746C688.746 172.14 688.746 172.208 688.746 172.285C688.746 253.813 666.902 319.894 639.957 319.894C613.012 319.894 591.168 253.803 591.168 172.285C591.168 90.7668 613.012 24.6757 639.957 24.6757C657.756 24.6757 673.328 53.5314 681.855 96.6171H708.79C696.305 39.7166 670.173 0.550388 639.967 0.550388C577.454 0.550388 523.235 38.2974 496.378 93.5181C483.631 38.2974 457.906 0.560042 428.242 0.560042C360.609 0.560042 302.703 44.7366 278.623 107.42C269.535 46.986 211.338 0.366963 140.899 0.366963C114.283 0.366963 92.7097 55.7035 92.7097 123.957C92.7097 141.035 94.0647 157.302 96.5036 172.101H49.3406L0 343.817H140.937V247.547L195.224 343.817H336.722L293.295 266.759H293.334C322.224 313.281 371.845 343.99 428.212 344C428.222 344 428.232 344 428.242 344C457.906 344 483.631 306.253 496.378 251.032C523.235 306.243 577.435 343.99 639.928 344C639.938 344 639.957 344 639.967 344C640.18 344 640.393 343.99 640.606 343.981H781.359V247.721L835.578 343.981H976.892L976.631 343.517H1017.8V270.176H1053.18L1074.31 343.537H1209.82L1168.25 268.11H1231.68L1209.82 343.527L1408.55 343.546L1320.41 38.114L1482 171.928ZM140.899 224.909C126.981 224.909 115.686 179.709 115.686 123.957C115.686 68.2054 126.971 23.0055 140.899 23.0055C154.826 23.0055 166.111 68.2054 166.111 123.957C166.111 179.709 154.826 224.909 140.899 224.909ZM141.547 247.547C196.917 247.325 244.632 218.286 266.738 176.436C267.309 201.923 273.106 226.029 283.026 247.605H282.494L282.465 247.547H141.547ZM428.242 24.666C452.612 24.666 472.801 78.7283 476.44 149.376H380.043C383.682 78.7283 403.871 24.666 428.242 24.666ZM470.178 247.74C461.671 290.942 446.079 319.894 428.242 319.894C401.297 319.894 379.462 253.813 379.453 172.295H478.414C478.414 199.364 484.318 224.967 494.819 247.74H470.178ZM781.32 225.092C767.412 225.092 756.147 179.902 756.147 124.15C756.147 68.3985 767.422 23.2083 781.32 23.2083C795.219 23.2083 806.494 68.3985 806.494 124.15C806.494 179.902 795.219 225.092 781.32 225.092ZM1017.8 247.267V147.378L1046.58 247.267H1017.8ZM1210.88 171.773H1115.16L1115.39 123.59C1115.39 67.8386 1126.67 22.6483 1140.56 22.6483C1154.46 22.6483 1165.74 67.8386 1165.74 123.59H1273.54L1243.01 228.934L1210.86 171.773H1210.88ZM1278.2 107.536C1275.5 89.0194 1268.2 71.7967 1257.36 56.7944L1298.35 37.9981L1278.2 107.545V107.536Z"
      fill="black" />
  </g>
  <defs>
    <clipPath id="clip0_1449_3475">
      <rect width="1482" height="344" fill="black" />
    </clipPath>
  </defs>
</svg>